<svg width="465" height="190" viewBox="0 0 465 190" fill="none" xmlns="http://www.w3.org/2000/svg">
<g style="mix-blend-mode:color-burn">
<path d="M3.04367 121.611C3.11504 120.11 6.28417 120.61 7.35498 120.368C12.9556 120.204 18.5563 120.414 24.1682 120.439C37.5394 120.845 50.8925 121.598 64.2554 122.422C118.833 125.928 173.444 129.255 227.765 135.626C179.83 128.26 131.81 121.343 83.5634 116.388C66.1151 114.729 48.6275 113.156 31.14 111.956C20.8898 111.063 10.0755 111.065 0.10791 109.409C0.130426 109.413 0.126206 109.436 0.148722 109.44C20.0702 108.719 39.9587 111.16 59.8216 112.619C93.0772 115.489 126.256 119.394 159.326 124.001C223.634 132.919 287.749 143.245 351.55 155.121C354.986 155.811 358.423 156.501 361.821 157.393C362.569 157.51 362.718 158.703 361.953 158.933C360.256 159.407 358.506 158.544 356.853 158.164C277.894 141.61 197.563 132.629 117.118 127.495C82.8213 125.455 48.5652 122.327 14.2169 121.932C148.144 139.037 282.247 156.944 414.242 185.736C432.204 190.381 427.557 190.26 411.942 186.82C277.177 157.137 138.941 140.39 3.04367 121.611Z" fill="#292929"/>
<path d="M559.295 16.7781C559.19 14.794 555.004 15.4783 553.587 15.1658C546.183 14.9908 538.782 15.3087 531.364 15.3831C513.694 16.0174 496.049 17.1091 478.392 18.2957C406.279 23.3291 334.119 28.1246 262.366 36.9431C325.672 26.8559 389.092 17.3632 452.828 10.4618C475.878 8.14196 498.981 5.93521 522.087 4.22141C535.629 2.9653 549.923 2.89007 563.086 0.627803C563.056 0.63354 563.062 0.663299 563.032 0.669035C536.695 -0.139131 510.425 3.23373 484.181 5.30629C440.246 9.34317 396.42 14.7467 352.742 21.0775C267.806 33.3339 183.136 47.4508 98.8924 63.6134C94.3551 64.5506 89.8178 65.4878 85.3321 66.6925C84.3452 66.8521 84.1563 68.4304 85.1698 68.7283C87.4162 69.3433 89.7222 68.1891 91.905 67.6754C196.151 45.2172 302.264 32.7601 408.557 25.3873C453.875 22.4406 499.131 18.0564 544.529 17.2837C367.632 40.87 190.508 65.5178 16.2499 104.538C-7.45692 110.808 -1.31642 110.614 19.2985 105.954C197.211 65.7355 379.806 42.5916 559.295 16.7781Z" fill="#292929"/>
</g>
</svg>
