<svg width="552" height="458" viewBox="0 0 552 458" fill="none" xmlns="http://www.w3.org/2000/svg">
<path d="M265.723 392.19C338.442 420.015 413.86 442.55 491.575 451.015C378.899 467.572 248.902 419.965 166.266 343.489C197.829 362.742 231.401 378.491 265.723 392.19ZM281.435 23.6386C331.968 39.1519 379.685 62.6503 425.053 89.5609C459.032 109.713 492.805 130.598 523.707 155.354C554.284 179.64 581.826 207.97 604.335 240.148C633.944 281.698 646.16 326.483 621.291 374.719C598.119 416.195 551.813 437.797 507.784 448.015C499.679 450.261 491.375 447.371 483.152 446.921C470.296 445.333 457.488 443.284 444.748 441.071C378.076 428.73 313.061 408.12 250.373 382.549C218.265 368.75 186.777 353.33 157.424 334.217C135.938 314.011 117.168 290.304 100.996 265.452C95.2262 256.29 89.5075 247.005 84.271 237.581C96.0929 271.278 120.261 298.508 143.398 324.688C111.872 302.706 82.7067 277.173 58.0422 247.477C25.3564 210.531 1.09851 163.099 3.32378 112.036C6.22862 47.3912 59.0529 15.2377 116.798 6.23879C172.293 -2.00163 228.386 7.8113 281.435 23.6386ZM324.002 35.4387C241.422 2.87974 119.15 -23.4507 40.7762 33.1241C-8.26355 69.0499 -7.43841 136.337 14.935 187.085C23.973 208.614 37.646 227.72 52.3564 245.569C80.9629 280.835 115.745 310.51 153.453 335.373C173.618 355.805 196.232 373.732 220.294 389.174C292.213 433.515 376.557 460.64 461.764 457.221C481.673 456.708 501.038 451.206 520.953 451.368C517.878 450.92 514.718 450.678 511.626 450.271C570.126 436.915 631.539 398.816 637.045 332.788C641.752 294.972 623.042 260.22 601.655 231.055C561.963 176.593 507.562 135.712 450.6 101.283C410.055 76.3105 368.344 53.0233 324.002 35.4387Z" fill="#292929"/>
</svg>
