<?xml version="1.0"?>
<svg width="552" height="458" xmlns="http://www.w3.org/2000/svg" xmlns:svg="http://www.w3.org/2000/svg">
 <g class="layer">
  <title>Layer 1</title>
  <path d="m265.72,392.19c72.72,27.82 148.14,50.36 225.85,58.82c-112.67,16.56 -242.67,-31.05 -325.3,-107.52c31.56,19.25 65.13,35 99.45,48.7zm15.72,-368.55c50.53,15.51 98.25,39.01 143.61,65.92c33.98,20.15 67.76,41.04 98.66,65.79c30.57,24.29 58.12,52.62 80.63,84.8c29.6,41.55 41.82,86.33 16.95,134.57c-23.17,41.47 -69.48,63.08 -113.51,73.29c-8.1,2.25 -16.4,-0.64 -24.63,-1.09c-12.85,-1.59 -25.66,-3.64 -38.4,-5.85c-66.67,-12.34 -131.69,-32.95 -194.38,-58.52c-32.11,-13.8 -63.59,-29.22 -92.95,-48.33c-21.48,-20.21 -40.25,-43.92 -56.42,-68.77c-5.77,-9.16 -11.49,-18.45 -16.73,-27.87c11.82,33.7 35.99,60.93 59.13,87.11c-31.53,-21.98 -60.69,-47.52 -85.36,-77.21c-32.68,-36.95 -56.94,-84.38 -54.72,-135.44c2.91,-64.65 55.73,-96.8 113.48,-105.8c55.49,-8.24 111.59,1.57 164.64,17.4zm42.56,11.8c-82.58,-32.56 -204.85,-58.89 -283.22,-2.32c-49.04,35.93 -48.22,103.22 -25.84,153.97c9.03,21.52 22.71,40.63 37.42,58.48c28.6,35.26 63.39,64.94 101.09,89.8c20.17,20.44 42.78,38.36 66.84,53.8c71.92,44.34 156.27,71.47 241.47,68.05c19.91,-0.51 39.28,-6.01 59.19,-5.85c-3.07,-0.45 -6.23,-0.69 -9.32,-1.1c58.5,-13.35 119.91,-51.45 125.41,-117.48c4.71,-37.82 -14,-72.57 -35.39,-101.73c-39.69,-54.47 -94.09,-95.35 -151.05,-129.78c-40.54,-24.97 -82.26,-48.26 -126.6,-65.84z" fill="#292929" id="svg_1"/>
 </g>
</svg>