<svg width="172" height="64" viewBox="0 0 172 64" fill="none" xmlns="http://www.w3.org/2000/svg">
<g clip-path="url(#clip0_4614_3143)">
<path d="M67.12 49H58.912L45.184 28.216V49H36.976V15.304H45.184L58.912 36.184V15.304H67.12V49ZM83.5338 15.304V35.464C83.5338 37.48 84.0298 39.032 85.0218 40.12C86.0138 41.208 87.4698 41.752 89.3898 41.752C91.3098 41.752 92.7818 41.208 93.8058 40.12C94.8298 39.032 95.3418 37.48 95.3418 35.464V15.304H103.55V35.416C103.55 38.424 102.91 40.968 101.63 43.048C100.35 45.128 98.6218 46.696 96.4458 47.752C94.3018 48.808 91.9018 49.336 89.2458 49.336C86.5898 49.336 84.2058 48.824 82.0938 47.8C80.0138 46.744 78.3658 45.176 77.1498 43.096C75.9338 40.984 75.3258 38.424 75.3258 35.416V15.304H83.5338ZM124.338 15.304C127.89 15.304 130.994 16.008 133.65 17.416C136.306 18.824 138.354 20.808 139.794 23.368C141.266 25.896 142.002 28.824 142.002 32.152C142.002 35.448 141.266 38.376 139.794 40.936C138.354 43.496 136.29 45.48 133.602 46.888C130.946 48.296 127.858 49 124.338 49H111.714V15.304H124.338ZM123.81 41.896C126.914 41.896 129.33 41.048 131.058 39.352C132.786 37.656 133.65 35.256 133.65 32.152C133.65 29.048 132.786 26.632 131.058 24.904C129.33 23.176 126.914 22.312 123.81 22.312H119.922V41.896H123.81ZM157.196 21.88V28.696H168.188V35.032H157.196V42.424H169.628V49H148.988V15.304H169.628V21.88H157.196Z" fill="white"/>
<mask id="path-2-outside-1_4614_3143" maskUnits="userSpaceOnUse" x="-2" y="8" width="23" height="47" fill="black">
<rect fill="white" x="-2" y="8" width="23" height="47"/>
<path d="M3.48 35.632L4.128 34.888L4.92 35.128C4.712 36.152 4.608 37.208 4.608 38.296C4.608 39.928 4.848 41.536 5.328 43.12C9.216 45.296 13.264 46.968 17.472 48.136L18 48.784L17.664 49.456C14.816 49.12 12.224 47.992 9.888 46.072L5.856 44.848L6.888 50.224L7.68 52.24L8.952 53.272L8.448 54.304H7.92C5.632 51.264 4.4 47.728 4.224 43.696L3.48 37.768L3.48 35.632ZM-0.432 29.7091L1.056 29.9491L7.68 33.3331L8.448 33.2131C8.944 32.5091 9.192 31.7651 9.192 30.9811C9.192 29.9731 8.768 28.9731 7.92 27.9811C6.368 25.9651 4.368 24.5651 1.92 23.7811L1.92 22.7491C3.12 23.1011 4.24 23.5651 5.28 24.1411C6.32 24.7171 7.296 25.4211 8.208 26.2531C10.352 27.4211 12.544 28.3011 14.784 28.8931L15.936 28.5091L16.608 28.7251L16.32 29.7091L14.592 29.9491L9.36 28.1011L10.392 31.1491L9.48 34.1491L18 38.8771L17.544 39.7891L16.848 39.6691L15.168 38.3491L9.24 35.1811H7.512L6.36 33.6211C4.072 32.2291 1.656 31.2131 -0.888001 30.5731L-0.432 29.7091ZM1.68 10.132L2.208 9.508L3.648 10.204L3.408 10.948L2.712 11.068C2.76 13.532 3.512 15.812 4.968 17.908L9.048 19.18L8.376 13.996L8.76 13.588H9.696L9.576 16.588L10.488 19.708L14.184 21.532L15.168 20.788C14.352 18.34 13.968 15.844 14.016 13.3L14.712 13.084C15.816 15.804 16.368 18.62 16.368 21.532L15.96 22.108L19.368 23.908L19.032 24.604L7.608 19.756H7.032L7.152 20.284L6.408 20.668L5.256 20.38C3.384 17.788 2.192 14.852 1.68 11.572V10.132ZM8.76 19.708V19.468L8.592 19.708H8.76Z"/>
</mask>
<path d="M3.48 35.632L4.128 34.888L4.92 35.128C4.712 36.152 4.608 37.208 4.608 38.296C4.608 39.928 4.848 41.536 5.328 43.12C9.216 45.296 13.264 46.968 17.472 48.136L18 48.784L17.664 49.456C14.816 49.12 12.224 47.992 9.888 46.072L5.856 44.848L6.888 50.224L7.68 52.24L8.952 53.272L8.448 54.304H7.92C5.632 51.264 4.4 47.728 4.224 43.696L3.48 37.768L3.48 35.632ZM-0.432 29.7091L1.056 29.9491L7.68 33.3331L8.448 33.2131C8.944 32.5091 9.192 31.7651 9.192 30.9811C9.192 29.9731 8.768 28.9731 7.92 27.9811C6.368 25.9651 4.368 24.5651 1.92 23.7811L1.92 22.7491C3.12 23.1011 4.24 23.5651 5.28 24.1411C6.32 24.7171 7.296 25.4211 8.208 26.2531C10.352 27.4211 12.544 28.3011 14.784 28.8931L15.936 28.5091L16.608 28.7251L16.32 29.7091L14.592 29.9491L9.36 28.1011L10.392 31.1491L9.48 34.1491L18 38.8771L17.544 39.7891L16.848 39.6691L15.168 38.3491L9.24 35.1811H7.512L6.36 33.6211C4.072 32.2291 1.656 31.2131 -0.888001 30.5731L-0.432 29.7091ZM1.68 10.132L2.208 9.508L3.648 10.204L3.408 10.948L2.712 11.068C2.76 13.532 3.512 15.812 4.968 17.908L9.048 19.18L8.376 13.996L8.76 13.588H9.696L9.576 16.588L10.488 19.708L14.184 21.532L15.168 20.788C14.352 18.34 13.968 15.844 14.016 13.3L14.712 13.084C15.816 15.804 16.368 18.62 16.368 21.532L15.96 22.108L19.368 23.908L19.032 24.604L7.608 19.756H7.032L7.152 20.284L6.408 20.668L5.256 20.38C3.384 17.788 2.192 14.852 1.68 11.572V10.132ZM8.76 19.708V19.468L8.592 19.708H8.76Z" fill="white"/>
<path d="M3.48 35.632L3.10296 35.3036L2.98 35.4448V35.632H3.48ZM4.128 34.888L4.273 34.4095L3.96342 34.3157L3.75096 34.5596L4.128 34.888ZM4.92 35.128L5.40999 35.2275L5.5006 34.7815L5.065 34.6495L4.92 35.128ZM5.328 43.12L4.84949 43.265L4.90794 43.4579L5.08381 43.5563L5.328 43.12ZM17.472 48.136L17.8596 47.8202L17.7591 47.6968L17.6057 47.6542L17.472 48.136ZM18 48.784L18.4472 49.0076L18.5917 48.7186L18.3876 48.4682L18 48.784ZM17.664 49.456L17.6054 49.9526L17.9542 49.9937L18.1112 49.6796L17.664 49.456ZM9.888 46.072L10.2055 45.6857L10.1285 45.6225L10.0332 45.5936L9.888 46.072ZM5.856 44.848L6.00124 44.3696L5.20885 44.129L5.36496 44.9423L5.856 44.848ZM6.888 50.224L6.39697 50.3183L6.40569 50.3637L6.42262 50.4068L6.888 50.224ZM7.68 52.24L7.21462 52.4228L7.26276 52.5453L7.36498 52.6283L7.68 52.24ZM8.952 53.272L9.40128 53.4914L9.57574 53.1342L9.26702 52.8837L8.952 53.272ZM8.448 54.304V54.804H8.76025L8.89728 54.5234L8.448 54.304ZM7.92 54.304L7.5205 54.6047L7.67053 54.804H7.92V54.304ZM4.224 43.696L4.72352 43.6742L4.72264 43.6539L4.72011 43.6337L4.224 43.696ZM3.48 37.768H2.98V37.7993L2.98389 37.8303L3.48 37.768ZM3.85704 35.9604L4.50504 35.2164L3.75096 34.5596L3.10296 35.3036L3.85704 35.9604ZM3.983 35.3665L4.775 35.6065L5.065 34.6495L4.273 34.4095L3.983 35.3665ZM4.43001 35.0285C4.21508 36.0865 4.108 37.1759 4.108 38.296H5.108C5.108 37.2401 5.20892 36.2175 5.40999 35.2275L4.43001 35.0285ZM4.108 38.296C4.108 39.9778 4.35544 41.6347 4.84949 43.265L5.80651 42.975C5.34055 41.4373 5.108 39.8782 5.108 38.296H4.108ZM5.08381 43.5563C9.00597 45.7514 13.091 47.4389 17.3383 48.6178L17.6057 47.6542C13.437 46.4971 9.42603 44.8406 5.57219 42.6837L5.08381 43.5563ZM17.0844 48.4518L17.6124 49.0998L18.3876 48.4682L17.8596 47.8202L17.0844 48.4518ZM17.5528 48.5604L17.2168 49.2324L18.1112 49.6796L18.4472 49.0076L17.5528 48.5604ZM17.7226 48.9594C14.9749 48.6353 12.4717 47.5484 10.2055 45.6857L9.57052 46.4583C11.9763 48.4356 14.6571 49.6047 17.6054 49.9526L17.7226 48.9594ZM10.0332 45.5936L6.00124 44.3696L5.71076 45.3264L9.74276 46.5504L10.0332 45.5936ZM5.36496 44.9423L6.39697 50.3183L7.37903 50.1297L6.34703 44.7537L5.36496 44.9423ZM6.42262 50.4068L7.21462 52.4228L8.14538 52.0572L7.35337 50.0412L6.42262 50.4068ZM7.36498 52.6283L8.63698 53.6603L9.26702 52.8837L7.99502 51.8517L7.36498 52.6283ZM8.50272 53.0526L7.99872 54.0846L8.89728 54.5234L9.40128 53.4914L8.50272 53.0526ZM8.448 53.804H7.92V54.804H8.448V53.804ZM8.31949 54.0033C6.09602 51.0491 4.8954 47.6117 4.72352 43.6742L3.72448 43.7178C3.9046 47.8443 5.16798 51.4789 7.5205 54.6047L8.31949 54.0033ZM4.72011 43.6337L3.97611 37.7057L2.98389 37.8303L3.72789 43.7583L4.72011 43.6337ZM3.98 37.768L3.98 35.632H2.98L2.98 37.768H3.98ZM-0.432 29.7091L-0.352384 29.2154L-0.706683 29.1583L-0.874192 29.4757L-0.432 29.7091ZM1.056 29.9491L1.28347 29.5038L1.21335 29.468L1.13562 29.4554L1.056 29.9491ZM7.68 33.3331L7.45253 33.7783L7.59695 33.8521L7.75719 33.8271L7.68 33.3331ZM8.448 33.2131L8.52519 33.7071L8.73464 33.6743L8.85674 33.501L8.448 33.2131ZM7.92 27.9811L7.5238 28.2861L7.53162 28.2962L7.53994 28.306L7.92 27.9811ZM1.92 23.7811H1.42V24.1459L1.7675 24.2572L1.92 23.7811ZM1.92 22.7491L2.06074 22.2693L1.42 22.0813V22.7491H1.92ZM5.28 24.1411L5.03775 24.5785H5.03775L5.28 24.1411ZM8.208 26.2531L7.87102 26.6224L7.9157 26.6632L7.9688 26.6921L8.208 26.2531ZM14.784 28.8931L14.6562 29.3765L14.8005 29.4146L14.9421 29.3674L14.784 28.8931ZM15.936 28.5091L16.089 28.033L15.9332 27.983L15.7779 28.0347L15.936 28.5091ZM16.608 28.7251L17.0879 28.8655L17.2247 28.3981L16.761 28.249L16.608 28.7251ZM16.32 29.7091L16.3888 30.2043L16.709 30.1598L16.7999 29.8495L16.32 29.7091ZM14.592 29.9491L14.4255 30.4205L14.5402 30.4611L14.6608 30.4443L14.592 29.9491ZM9.36 28.1011L9.52652 27.6296L8.55648 27.287L8.88641 28.2614L9.36 28.1011ZM10.392 31.1491L10.8704 31.2945L10.9171 31.1408L10.8656 30.9887L10.392 31.1491ZM9.48 34.1491L9.00162 34.0036L8.8841 34.3902L9.23739 34.5863L9.48 34.1491ZM18 38.8771L18.4472 39.1007L18.6614 38.6723L18.2426 38.4399L18 38.8771ZM17.544 39.7891L17.459 40.2818L17.8251 40.3449L17.9912 40.0127L17.544 39.7891ZM16.848 39.6691L16.5391 40.0622L16.6385 40.1403L16.763 40.1618L16.848 39.6691ZM15.168 38.3491L15.4769 37.9559L15.4424 37.9288L15.4037 37.9081L15.168 38.3491ZM9.24 35.1811L9.47566 34.7401L9.36522 34.6811H9.24V35.1811ZM7.512 35.1811L7.10978 35.4781L7.25968 35.6811H7.512V35.1811ZM6.36 33.6211L6.76222 33.324L6.70384 33.245L6.61988 33.1939L6.36 33.6211ZM-0.888001 30.5731L-1.33019 30.3397L-1.62732 30.9027L-1.00999 31.058L-0.888001 30.5731ZM-0.511616 30.2027L0.976383 30.4427L1.13562 29.4554L-0.352384 29.2154L-0.511616 30.2027ZM0.828529 30.3943L7.45253 33.7783L7.90747 32.8878L1.28347 29.5038L0.828529 30.3943ZM7.75719 33.8271L8.52519 33.7071L8.37081 32.7191L7.60281 32.8391L7.75719 33.8271ZM8.85674 33.501C9.406 32.7214 9.692 31.8783 9.692 30.9811H8.692C8.692 31.6518 8.482 32.2967 8.03926 32.9251L8.85674 33.501ZM9.692 30.9811C9.692 29.8224 9.2022 28.7115 8.30006 27.6562L7.53994 28.306C8.3338 29.2346 8.692 30.1237 8.692 30.9811H9.692ZM8.31619 27.6761C6.70155 25.5787 4.61616 24.1195 2.0725 23.3049L1.7675 24.2572C4.11984 25.0106 6.03445 26.3514 7.5238 28.2861L8.31619 27.6761ZM2.42 23.7811V22.7491H1.42L1.42 23.7811H2.42ZM1.77926 23.2288C2.94579 23.571 4.03155 24.0212 5.03775 24.5785L5.52225 23.7037C4.44845 23.1089 3.29421 22.6311 2.06074 22.2693L1.77926 23.2288ZM5.03775 24.5785C6.04234 25.1348 6.98673 25.8157 7.87102 26.6224L8.54498 25.8837C7.60527 25.0264 6.59766 24.2993 5.52225 23.7037L5.03775 24.5785ZM7.9688 26.6921C10.1461 27.8783 12.3754 28.7737 14.6562 29.3765L14.9118 28.4097C12.7126 27.8284 10.5579 26.9638 8.4472 25.814L7.9688 26.6921ZM14.9421 29.3674L16.0941 28.9834L15.7779 28.0347L14.6259 28.4187L14.9421 29.3674ZM15.783 28.9851L16.455 29.2011L16.761 28.249L16.089 28.033L15.783 28.9851ZM16.1281 28.5846L15.8401 29.5686L16.7999 29.8495L17.0879 28.8655L16.1281 28.5846ZM16.2512 29.2138L14.5232 29.4538L14.6608 30.4443L16.3888 30.2043L16.2512 29.2138ZM14.7585 29.4776L9.52652 27.6296L9.19348 28.5725L14.4255 30.4205L14.7585 29.4776ZM8.88641 28.2614L9.91841 31.3094L10.8656 30.9887L9.83359 27.9407L8.88641 28.2614ZM9.91362 31.0036L9.00162 34.0036L9.95838 34.2945L10.8704 31.2945L9.91362 31.0036ZM9.23739 34.5863L17.7574 39.3143L18.2426 38.4399L9.72261 33.7119L9.23739 34.5863ZM17.5528 38.6535L17.0968 39.5655L17.9912 40.0127L18.4472 39.1007L17.5528 38.6535ZM17.629 39.2963L16.933 39.1763L16.763 40.1618L17.459 40.2818L17.629 39.2963ZM17.1569 39.2759L15.4769 37.9559L14.8591 38.7422L16.5391 40.0622L17.1569 39.2759ZM15.4037 37.9081L9.47566 34.7401L9.00434 35.622L14.9323 38.79L15.4037 37.9081ZM9.24 34.6811H7.512V35.6811H9.24V34.6811ZM7.91422 34.884L6.76222 33.324L5.95778 33.9181L7.10978 35.4781L7.91422 34.884ZM6.61988 33.1939C4.28997 31.7764 1.8276 30.7407 -0.766016 30.0882L-1.00999 31.058C1.4844 31.6855 3.85403 32.6817 6.10012 34.0482L6.61988 33.1939ZM-0.445809 30.8064L0.010192 29.9424L-0.874192 29.4757L-1.33019 30.3397L-0.445809 30.8064ZM1.68 10.132L1.29831 9.80903L1.18 9.94884V10.132H1.68ZM2.208 9.508L2.42558 9.05783L2.07665 8.88917L1.82631 9.18503L2.208 9.508ZM3.648 10.204L4.12385 10.3575L4.25748 9.94324L3.86558 9.75383L3.648 10.204ZM3.408 10.948L3.49295 11.4407L3.791 11.3893L3.88385 11.1015L3.408 10.948ZM2.712 11.068L2.62705 10.5753L2.20373 10.6483L2.21209 11.0777L2.712 11.068ZM4.968 17.908L4.55735 18.1933L4.65529 18.3342L4.81918 18.3853L4.968 17.908ZM9.048 19.18L8.89918 19.6573L9.64417 19.8896L9.54385 19.1157L9.048 19.18ZM8.376 13.996L8.0119 13.6533L7.84973 13.8256L7.88015 14.0603L8.376 13.996ZM8.76 13.588V13.088H8.54396L8.3959 13.2453L8.76 13.588ZM9.696 13.588L10.1956 13.608L10.2164 13.088H9.696V13.588ZM9.576 16.588L9.0764 16.568L9.07313 16.6498L9.09608 16.7283L9.576 16.588ZM10.488 19.708L10.0081 19.8483L10.0697 20.0591L10.2667 20.1564L10.488 19.708ZM14.184 21.532L13.9627 21.9804L14.2394 22.1169L14.4856 21.9308L14.184 21.532ZM15.168 20.788L15.4696 21.1868L15.7558 20.9704L15.6423 20.6299L15.168 20.788ZM14.016 13.3L13.8678 12.8225L13.5229 12.9295L13.5161 13.2906L14.016 13.3ZM14.712 13.084L15.1753 12.896L15.0025 12.4703L14.5638 12.6065L14.712 13.084ZM16.368 21.532L16.776 21.821L16.868 21.6911V21.532H16.368ZM15.96 22.108L15.552 21.819L15.2226 22.284L15.7265 22.5501L15.96 22.108ZM19.368 23.908L19.8183 24.1254L20.0279 23.6911L19.6015 23.4659L19.368 23.908ZM19.032 24.604L18.8367 25.0643L19.2752 25.2504L19.4823 24.8214L19.032 24.604ZM7.608 19.756L7.80332 19.2957L7.7097 19.256H7.608V19.756ZM7.032 19.756V19.256H6.40561L6.54443 19.8668L7.032 19.756ZM7.152 20.284L7.38132 20.7283L7.72537 20.5507L7.63957 20.1732L7.152 20.284ZM6.408 20.668L6.28673 21.1531L6.46971 21.1988L6.63732 21.1123L6.408 20.668ZM5.256 20.38L4.85066 20.6727L4.95758 20.8208L5.13473 20.8651L5.256 20.38ZM1.68 11.572H1.18V11.6108L1.18598 11.6491L1.68 11.572ZM8.76 19.708V20.208H9.26V19.708H8.76ZM8.76 19.468H9.26V17.8818L8.35038 19.1813L8.76 19.468ZM8.592 19.708L8.18238 19.4213L7.63167 20.208H8.592V19.708ZM2.06169 10.455L2.58969 9.83097L1.82631 9.18503L1.29831 9.80903L2.06169 10.455ZM1.99041 9.95818L3.43041 10.6542L3.86558 9.75383L2.42558 9.05783L1.99041 9.95818ZM3.17214 10.0505L2.93214 10.7945L3.88385 11.1015L4.12385 10.3575L3.17214 10.0505ZM3.32305 10.4553L2.62705 10.5753L2.79695 11.5607L3.49295 11.4407L3.32305 10.4553ZM2.21209 11.0777C2.26209 13.644 3.04719 16.0193 4.55735 18.1933L5.37864 17.6227C3.97681 15.6047 3.25791 13.42 3.2119 11.0583L2.21209 11.0777ZM4.81918 18.3853L8.89918 19.6573L9.19682 18.7027L5.11682 17.4307L4.81918 18.3853ZM9.54385 19.1157L8.87185 13.9317L7.88015 14.0603L8.55215 19.2443L9.54385 19.1157ZM8.7401 14.3387L9.1241 13.9307L8.3959 13.2453L8.0119 13.6533L8.7401 14.3387ZM8.76 14.088H9.696V13.088H8.76V14.088ZM9.1964 13.568L9.0764 16.568L10.0756 16.608L10.1956 13.608L9.1964 13.568ZM9.09608 16.7283L10.0081 19.8483L10.9679 19.5677L10.0559 16.4477L9.09608 16.7283ZM10.2667 20.1564L13.9627 21.9804L14.4053 21.0836L10.7093 19.2596L10.2667 20.1564ZM14.4856 21.9308L15.4696 21.1868L14.8664 20.3892L13.8824 21.1332L14.4856 21.9308ZM15.6423 20.6299C14.8441 18.2351 14.469 15.7957 14.5159 13.3094L13.5161 13.2906C13.467 15.8923 13.8599 18.4449 14.6937 20.9461L15.6423 20.6299ZM14.1642 13.7775L14.8602 13.5615L14.5638 12.6065L13.8678 12.8225L14.1642 13.7775ZM14.2487 13.272C15.3287 15.9328 15.868 18.685 15.868 21.532H16.868C16.868 18.555 16.3033 15.6752 15.1753 12.896L14.2487 13.272ZM15.96 21.243L15.552 21.819L16.368 22.397L16.776 21.821L15.96 21.243ZM15.7265 22.5501L19.1345 24.3501L19.6015 23.4659L16.1935 21.6659L15.7265 22.5501ZM18.9177 23.6906L18.5817 24.3866L19.4823 24.8214L19.8183 24.1254L18.9177 23.6906ZM19.2273 24.1437L7.80332 19.2957L7.41267 20.2163L18.8367 25.0643L19.2273 24.1437ZM7.608 19.256H7.032L7.032 20.256H7.608L7.608 19.256ZM6.54443 19.8668L6.66443 20.3948L7.63957 20.1732L7.51957 19.6452L6.54443 19.8668ZM6.92268 19.8397L6.17868 20.2237L6.63732 21.1123L7.38132 20.7283L6.92268 19.8397ZM6.52927 20.1829L5.37727 19.8949L5.13473 20.8651L6.28673 21.1531L6.52927 20.1829ZM5.66134 20.0873C3.83727 17.5616 2.67434 14.7001 2.17402 11.4949L1.18598 11.6491C1.70966 15.0039 2.93073 18.0144 4.85066 20.6727L5.66134 20.0873ZM2.18 11.572V10.132H1.18V11.572H2.18ZM9.26 19.708V19.468H8.26V19.708H9.26ZM8.35038 19.1813L8.18238 19.4213L9.00162 19.9947L9.16962 19.7547L8.35038 19.1813ZM8.592 20.208H8.76V19.208H8.592V20.208Z" fill="white" mask="url(#path-2-outside-1_4614_3143)"/>
<path d="M28 0V60" stroke="white" stroke-width="2"/>
</g>
<defs>
<clipPath id="clip0_4614_3143">
<rect width="172" height="64" fill="white"/>
</clipPath>
</defs>
</svg>
