<svg width="24" height="24" viewBox="0 0 24 24" fill="none" xmlns="http://www.w3.org/2000/svg">
<g clip-path="url(#clip0_4432_1017)">
<path d="M19.905 2.625H3.345C2.94675 2.625 2.625 2.94675 2.625 3.345V19.905C2.625 20.3032 2.94675 20.625 3.345 20.625H19.905C20.3032 20.625 20.625 20.3032 20.625 19.905V3.345C20.625 2.94675 20.3032 2.625 19.905 2.625ZM13.5712 8.00025H16.6853V8.7585H13.5712V8.00025ZM11.625 14.253C11.4794 14.5295 11.2714 14.7683 11.0175 14.9505C10.752 15.135 10.4573 15.27 10.1445 15.3488C9.81729 15.4364 9.47975 15.4796 9.141 15.477H5.415V7.80225H9.0375C9.40425 7.80225 9.73725 7.836 10.041 7.899C10.3425 7.962 10.599 8.07 10.815 8.21625C11.0287 8.3625 11.1975 8.55825 11.3167 8.80125C11.4337 9.042 11.4945 9.3435 11.4945 9.70125C11.4945 10.0882 11.4067 10.4077 11.2312 10.6665C11.0535 10.9252 10.797 11.1345 10.4483 11.2987C10.923 11.4338 11.2717 11.6745 11.5013 12.012C11.7352 12.354 11.85 12.7635 11.85 13.245C11.85 13.6365 11.7758 13.9717 11.625 14.253ZM17.898 13.065H13.884C13.884 13.5015 14.0348 13.92 14.262 14.145C14.4915 14.3678 14.82 14.4803 15.2497 14.4803C15.5602 14.4803 15.8235 14.4015 16.0485 14.2463C16.2712 14.091 16.4062 13.9268 16.4558 13.7558H17.8012C17.5852 14.424 17.2568 14.901 16.8112 15.189C16.3702 15.477 15.8302 15.621 15.2025 15.621C14.7638 15.621 14.37 15.549 14.0167 15.4117C13.677 15.279 13.371 15.0765 13.119 14.8155C12.8705 14.5475 12.6785 14.2322 12.5542 13.8885C12.417 13.5082 12.3495 13.1077 12.354 12.705C12.354 12.2887 12.4237 11.9017 12.5588 11.5417C12.8175 10.842 13.3553 10.2817 14.0415 9.9915C14.4082 9.8385 14.802 9.762 15.2003 9.7665C15.6728 9.7665 16.0823 9.8565 16.4377 10.041C16.78 10.2172 17.0771 10.4697 17.3062 10.779C17.5335 11.0872 17.6933 11.4382 17.7945 11.8342C17.8913 12.2235 17.925 12.633 17.898 13.065ZM15.153 10.914C14.91 10.914 14.7053 10.9567 14.5478 11.04C14.3903 11.1233 14.2598 11.2268 14.1608 11.346C14.0665 11.4611 13.9968 11.5944 13.956 11.7375C13.92 11.8567 13.8952 11.9783 13.8862 12.102H16.3725C16.3365 11.7128 16.2015 11.4248 16.0215 11.2222C15.8325 11.022 15.5287 10.914 15.153 10.914ZM9.56175 10.6867C9.7575 10.545 9.852 10.311 9.852 9.98925C9.85875 9.83625 9.82725 9.6855 9.75975 9.54825C9.699 9.438 9.609 9.34575 9.49875 9.2805C9.38443 9.21118 9.25747 9.16529 9.12525 9.1455C8.98125 9.1185 8.835 9.105 8.691 9.10725H7.10925V10.9005H8.8215C9.11625 10.9027 9.366 10.8307 9.56175 10.6867ZM9.82725 12.3067C9.60675 12.138 9.312 12.0547 8.94525 12.0547H7.10475V14.1697H8.90925C9.078 14.1697 9.23325 14.154 9.384 14.1225C9.53475 14.091 9.66975 14.037 9.7845 13.9605C9.89925 13.8862 9.9915 13.785 10.0612 13.6545C10.1287 13.524 10.1625 13.3575 10.1625 13.1572C10.1625 12.759 10.05 12.4777 9.82725 12.3067Z" fill="#292929"/>
</g>
<defs>
<clipPath id="clip0_4432_1017">
<rect x="2.625" y="2.625" width="18" height="18" rx="2" fill="white"/>
</clipPath>
</defs>
</svg>
