<svg xmlns="http://www.w3.org/2000/svg" width="366" height="28" fill="none"><path fill="#292929" d="M361.63 19.012c.101-1.451-2.602-1.398-3.471-1.774-4.665-.911-9.369-1.464-14.064-2.196-11.221-1.41-22.464-2.486-33.724-3.494-46-3.982-92.01-8.141-138.102-9.337 40.861-.62 81.743-.795 122.607.943 14.763.757 29.551 1.601 44.298 2.804 8.665.522 17.705 1.98 26.215 1.732-.02.001-.018.024-.038.025-16.576-3.376-33.464-3.709-50.225-4.983-28.108-1.722-56.262-2.44-84.4-2.469C176.012.167 121.309 1.449 66.703 4.262c-2.946.2-5.893.4-8.83.8-.637.01-.89 1.136-.274 1.46 1.368.684 2.923.09 4.346-.052C129.722 1.206 197.838 3.4 265.637 9.301c28.889 2.66 57.861 4.269 86.618 8.515-113.789-1.609-227.811-2.471-341.235 7.402C-4.492 27.26-.595 27.77 12.827 26.57c115.834-10.357 233.187-7.823 348.803-7.557Z"/></svg>
